<mxfile host="app.diagrams.net" modified="2023-06-04T17:09:11.863Z" agent="Mozilla/5.0 (Windows NT 10.0; Win64; x64) AppleWebKit/537.36 (KHTML, like Gecko) Chrome/110.0.0.0 YaBrowser/23.3.4.603 Yowser/2.5 Safari/537.36" etag="P7XHgRe8PsjIxTg79Pze" version="21.3.4" type="device">
  <diagram name="Страница 1" id="z0OcaysPYcjso5X3FhD-">
    <mxGraphModel dx="1050" dy="577" grid="1" gridSize="10" guides="1" tooltips="1" connect="1" arrows="1" fold="1" page="1" pageScale="1" pageWidth="827" pageHeight="1169" math="0" shadow="0">
      <root>
        <mxCell id="0" />
        <mxCell id="1" parent="0" />
        <mxCell id="fzwZUEE2fW5QMdkN8k67-1" value="" style="shape=umlLifeline;perimeter=lifelinePerimeter;whiteSpace=wrap;html=1;container=1;dropTarget=0;collapsible=0;recursiveResize=0;outlineConnect=0;portConstraint=eastwest;newEdgeStyle={&quot;edgeStyle&quot;:&quot;elbowEdgeStyle&quot;,&quot;elbow&quot;:&quot;vertical&quot;,&quot;curved&quot;:0,&quot;rounded&quot;:0};participant=umlActor;size=40;" parent="1" vertex="1">
          <mxGeometry x="280" y="150" width="20" height="760" as="geometry" />
        </mxCell>
        <mxCell id="fzwZUEE2fW5QMdkN8k67-35" value="" style="html=1;points=[];perimeter=orthogonalPerimeter;outlineConnect=0;targetShapes=umlLifeline;portConstraint=eastwest;newEdgeStyle={&quot;edgeStyle&quot;:&quot;elbowEdgeStyle&quot;,&quot;elbow&quot;:&quot;vertical&quot;,&quot;curved&quot;:0,&quot;rounded&quot;:0};" parent="fzwZUEE2fW5QMdkN8k67-1" vertex="1">
          <mxGeometry x="5" y="70" width="10" height="650" as="geometry" />
        </mxCell>
        <mxCell id="fzwZUEE2fW5QMdkN8k67-3" value="Администратор" style="text;html=1;align=center;verticalAlign=middle;resizable=0;points=[];autosize=1;strokeColor=none;fillColor=none;" parent="1" vertex="1">
          <mxGeometry x="235" y="115" width="110" height="30" as="geometry" />
        </mxCell>
        <mxCell id="fzwZUEE2fW5QMdkN8k67-4" value=":Веб-приложение" style="shape=umlLifeline;perimeter=lifelinePerimeter;whiteSpace=wrap;html=1;container=1;dropTarget=0;collapsible=0;recursiveResize=0;outlineConnect=0;portConstraint=eastwest;newEdgeStyle={&quot;edgeStyle&quot;:&quot;elbowEdgeStyle&quot;,&quot;elbow&quot;:&quot;vertical&quot;,&quot;curved&quot;:0,&quot;rounded&quot;:0};" parent="1" vertex="1">
          <mxGeometry x="510" y="150" width="100" height="760" as="geometry" />
        </mxCell>
        <mxCell id="fzwZUEE2fW5QMdkN8k67-32" value="" style="html=1;points=[];perimeter=orthogonalPerimeter;outlineConnect=0;targetShapes=umlLifeline;portConstraint=eastwest;newEdgeStyle={&quot;edgeStyle&quot;:&quot;elbowEdgeStyle&quot;,&quot;elbow&quot;:&quot;vertical&quot;,&quot;curved&quot;:0,&quot;rounded&quot;:0};" parent="fzwZUEE2fW5QMdkN8k67-4" vertex="1">
          <mxGeometry x="45" y="80" width="10" height="640" as="geometry" />
        </mxCell>
        <mxCell id="fzwZUEE2fW5QMdkN8k67-8" value=":Сервер" style="shape=umlLifeline;perimeter=lifelinePerimeter;whiteSpace=wrap;html=1;container=1;dropTarget=0;collapsible=0;recursiveResize=0;outlineConnect=0;portConstraint=eastwest;newEdgeStyle={&quot;edgeStyle&quot;:&quot;elbowEdgeStyle&quot;,&quot;elbow&quot;:&quot;vertical&quot;,&quot;curved&quot;:0,&quot;rounded&quot;:0};" parent="1" vertex="1">
          <mxGeometry x="680" y="150" width="100" height="760" as="geometry" />
        </mxCell>
        <mxCell id="fzwZUEE2fW5QMdkN8k67-39" value="" style="html=1;points=[];perimeter=orthogonalPerimeter;outlineConnect=0;targetShapes=umlLifeline;portConstraint=eastwest;newEdgeStyle={&quot;edgeStyle&quot;:&quot;elbowEdgeStyle&quot;,&quot;elbow&quot;:&quot;vertical&quot;,&quot;curved&quot;:0,&quot;rounded&quot;:0};" parent="fzwZUEE2fW5QMdkN8k67-8" vertex="1">
          <mxGeometry x="45" y="210" width="10" height="100" as="geometry" />
        </mxCell>
        <mxCell id="fzwZUEE2fW5QMdkN8k67-50" value="" style="html=1;points=[];perimeter=orthogonalPerimeter;outlineConnect=0;targetShapes=umlLifeline;portConstraint=eastwest;newEdgeStyle={&quot;edgeStyle&quot;:&quot;elbowEdgeStyle&quot;,&quot;elbow&quot;:&quot;vertical&quot;,&quot;curved&quot;:0,&quot;rounded&quot;:0};" parent="fzwZUEE2fW5QMdkN8k67-8" vertex="1">
          <mxGeometry x="45" y="395" width="10" height="105" as="geometry" />
        </mxCell>
        <mxCell id="fzwZUEE2fW5QMdkN8k67-70" value="" style="html=1;points=[];perimeter=orthogonalPerimeter;outlineConnect=0;targetShapes=umlLifeline;portConstraint=eastwest;newEdgeStyle={&quot;edgeStyle&quot;:&quot;elbowEdgeStyle&quot;,&quot;elbow&quot;:&quot;vertical&quot;,&quot;curved&quot;:0,&quot;rounded&quot;:0};" parent="fzwZUEE2fW5QMdkN8k67-8" vertex="1">
          <mxGeometry x="45" y="580" width="10" height="100" as="geometry" />
        </mxCell>
        <mxCell id="fzwZUEE2fW5QMdkN8k67-11" value=":БД" style="shape=umlLifeline;perimeter=lifelinePerimeter;whiteSpace=wrap;html=1;container=1;dropTarget=0;collapsible=0;recursiveResize=0;outlineConnect=0;portConstraint=eastwest;newEdgeStyle={&quot;edgeStyle&quot;:&quot;elbowEdgeStyle&quot;,&quot;elbow&quot;:&quot;vertical&quot;,&quot;curved&quot;:0,&quot;rounded&quot;:0};" parent="1" vertex="1">
          <mxGeometry x="910" y="150" width="100" height="760" as="geometry" />
        </mxCell>
        <mxCell id="fzwZUEE2fW5QMdkN8k67-42" value="" style="html=1;points=[];perimeter=orthogonalPerimeter;outlineConnect=0;targetShapes=umlLifeline;portConstraint=eastwest;newEdgeStyle={&quot;edgeStyle&quot;:&quot;elbowEdgeStyle&quot;,&quot;elbow&quot;:&quot;vertical&quot;,&quot;curved&quot;:0,&quot;rounded&quot;:0};" parent="fzwZUEE2fW5QMdkN8k67-11" vertex="1">
          <mxGeometry x="45" y="220" width="10" height="80" as="geometry" />
        </mxCell>
        <mxCell id="fzwZUEE2fW5QMdkN8k67-53" value="" style="html=1;points=[];perimeter=orthogonalPerimeter;outlineConnect=0;targetShapes=umlLifeline;portConstraint=eastwest;newEdgeStyle={&quot;edgeStyle&quot;:&quot;elbowEdgeStyle&quot;,&quot;elbow&quot;:&quot;vertical&quot;,&quot;curved&quot;:0,&quot;rounded&quot;:0};" parent="fzwZUEE2fW5QMdkN8k67-11" vertex="1">
          <mxGeometry x="45" y="405" width="10" height="80" as="geometry" />
        </mxCell>
        <mxCell id="fzwZUEE2fW5QMdkN8k67-73" value="" style="html=1;points=[];perimeter=orthogonalPerimeter;outlineConnect=0;targetShapes=umlLifeline;portConstraint=eastwest;newEdgeStyle={&quot;edgeStyle&quot;:&quot;elbowEdgeStyle&quot;,&quot;elbow&quot;:&quot;vertical&quot;,&quot;curved&quot;:0,&quot;rounded&quot;:0};" parent="fzwZUEE2fW5QMdkN8k67-11" vertex="1">
          <mxGeometry x="45" y="590" width="10" height="80" as="geometry" />
        </mxCell>
        <mxCell id="fzwZUEE2fW5QMdkN8k67-33" value="Посмотреть страницу сайта()" style="html=1;verticalAlign=bottom;endArrow=block;edgeStyle=elbowEdgeStyle;elbow=vertical;curved=0;rounded=0;" parent="1" source="fzwZUEE2fW5QMdkN8k67-35" target="fzwZUEE2fW5QMdkN8k67-32" edge="1">
          <mxGeometry relative="1" as="geometry">
            <mxPoint x="389" y="230" as="sourcePoint" />
            <Array as="points">
              <mxPoint x="330" y="240" />
            </Array>
          </mxGeometry>
        </mxCell>
        <mxCell id="fzwZUEE2fW5QMdkN8k67-34" value="Страница просмотрена()" style="html=1;verticalAlign=bottom;endArrow=open;dashed=1;endSize=8;edgeStyle=elbowEdgeStyle;elbow=vertical;curved=0;rounded=0;" parent="1" source="fzwZUEE2fW5QMdkN8k67-32" target="fzwZUEE2fW5QMdkN8k67-35" edge="1">
          <mxGeometry relative="1" as="geometry">
            <mxPoint x="389" y="305" as="targetPoint" />
            <Array as="points">
              <mxPoint x="330" y="300" />
            </Array>
          </mxGeometry>
        </mxCell>
        <mxCell id="fzwZUEE2fW5QMdkN8k67-37" value="Добавить тематику()" style="html=1;verticalAlign=bottom;endArrow=block;edgeStyle=elbowEdgeStyle;elbow=vertical;curved=0;rounded=0;" parent="1" source="fzwZUEE2fW5QMdkN8k67-35" edge="1">
          <mxGeometry relative="1" as="geometry">
            <mxPoint x="389" y="350" as="sourcePoint" />
            <mxPoint x="555" y="360" as="targetPoint" />
            <Array as="points">
              <mxPoint x="330" y="360" />
            </Array>
            <mxPoint as="offset" />
          </mxGeometry>
        </mxCell>
        <mxCell id="fzwZUEE2fW5QMdkN8k67-38" value="Добавлена новая тематика()" style="html=1;verticalAlign=bottom;endArrow=open;dashed=1;endSize=8;edgeStyle=elbowEdgeStyle;elbow=vertical;curved=0;rounded=0;" parent="1" target="fzwZUEE2fW5QMdkN8k67-35" edge="1">
          <mxGeometry relative="1" as="geometry">
            <mxPoint x="389" y="425" as="targetPoint" />
            <mxPoint x="555" y="470" as="sourcePoint" />
            <Array as="points">
              <mxPoint x="380" y="470" />
              <mxPoint x="470" y="440" />
              <mxPoint x="330" y="420" />
            </Array>
          </mxGeometry>
        </mxCell>
        <mxCell id="fzwZUEE2fW5QMdkN8k67-40" value="Отправить данные()" style="html=1;verticalAlign=bottom;endArrow=block;edgeStyle=elbowEdgeStyle;elbow=vertical;curved=0;rounded=0;" parent="1" target="fzwZUEE2fW5QMdkN8k67-39" edge="1">
          <mxGeometry relative="1" as="geometry">
            <mxPoint x="565" y="370" as="sourcePoint" />
            <Array as="points">
              <mxPoint x="570" y="370" />
            </Array>
          </mxGeometry>
        </mxCell>
        <mxCell id="fzwZUEE2fW5QMdkN8k67-41" value="Тематика добавлена()" style="html=1;verticalAlign=bottom;endArrow=open;dashed=1;endSize=8;edgeStyle=elbowEdgeStyle;elbow=vertical;curved=0;rounded=0;" parent="1" source="fzwZUEE2fW5QMdkN8k67-39" edge="1">
          <mxGeometry relative="1" as="geometry">
            <mxPoint x="565" y="450" as="targetPoint" />
            <Array as="points">
              <mxPoint x="660" y="450" />
              <mxPoint x="560" y="430" />
            </Array>
          </mxGeometry>
        </mxCell>
        <mxCell id="fzwZUEE2fW5QMdkN8k67-43" value="Добавить тематику()" style="html=1;verticalAlign=bottom;endArrow=block;edgeStyle=elbowEdgeStyle;elbow=vertical;curved=0;rounded=0;" parent="1" source="fzwZUEE2fW5QMdkN8k67-39" target="fzwZUEE2fW5QMdkN8k67-42" edge="1">
          <mxGeometry relative="1" as="geometry">
            <mxPoint x="795" y="370" as="sourcePoint" />
            <Array as="points">
              <mxPoint x="770" y="380" />
              <mxPoint x="740" y="370" />
            </Array>
          </mxGeometry>
        </mxCell>
        <mxCell id="fzwZUEE2fW5QMdkN8k67-44" value="Тематика добавлена()" style="html=1;verticalAlign=bottom;endArrow=open;dashed=1;endSize=8;edgeStyle=elbowEdgeStyle;elbow=vertical;curved=0;rounded=0;" parent="1" source="fzwZUEE2fW5QMdkN8k67-42" target="fzwZUEE2fW5QMdkN8k67-39" edge="1">
          <mxGeometry x="0.0048" relative="1" as="geometry">
            <mxPoint x="875" y="445" as="targetPoint" />
            <Array as="points">
              <mxPoint x="790" y="440" />
            </Array>
            <mxPoint as="offset" />
          </mxGeometry>
        </mxCell>
        <mxCell id="fzwZUEE2fW5QMdkN8k67-48" value="Удалить тематику/статью()" style="html=1;verticalAlign=bottom;endArrow=block;edgeStyle=elbowEdgeStyle;elbow=vertical;curved=0;rounded=0;" parent="1" source="fzwZUEE2fW5QMdkN8k67-35" edge="1">
          <mxGeometry relative="1" as="geometry">
            <mxPoint x="485" y="530" as="sourcePoint" />
            <mxPoint x="555" y="540" as="targetPoint" />
            <Array as="points">
              <mxPoint x="350" y="540" />
            </Array>
          </mxGeometry>
        </mxCell>
        <mxCell id="fzwZUEE2fW5QMdkN8k67-49" value="Удалена&amp;nbsp; тематика/статья()" style="html=1;verticalAlign=bottom;endArrow=open;dashed=1;endSize=8;edgeStyle=elbowEdgeStyle;elbow=vertical;curved=0;rounded=0;" parent="1" target="fzwZUEE2fW5QMdkN8k67-35" edge="1">
          <mxGeometry relative="1" as="geometry">
            <mxPoint x="485" y="605" as="targetPoint" />
            <mxPoint x="555" y="650" as="sourcePoint" />
            <Array as="points">
              <mxPoint x="480" y="650" />
              <mxPoint x="510" y="620" />
              <mxPoint x="370" y="600" />
            </Array>
          </mxGeometry>
        </mxCell>
        <mxCell id="fzwZUEE2fW5QMdkN8k67-51" value="Отправить данные()" style="html=1;verticalAlign=bottom;endArrow=block;edgeStyle=elbowEdgeStyle;elbow=vertical;curved=0;rounded=0;" parent="1" target="fzwZUEE2fW5QMdkN8k67-50" edge="1">
          <mxGeometry relative="1" as="geometry">
            <mxPoint x="565" y="550" as="sourcePoint" />
            <Array as="points">
              <mxPoint x="600" y="550" />
            </Array>
          </mxGeometry>
        </mxCell>
        <mxCell id="fzwZUEE2fW5QMdkN8k67-52" value="Запись удалена()" style="html=1;verticalAlign=bottom;endArrow=open;dashed=1;endSize=8;edgeStyle=elbowEdgeStyle;elbow=vertical;curved=0;rounded=0;" parent="1" source="fzwZUEE2fW5QMdkN8k67-50" edge="1">
          <mxGeometry relative="1" as="geometry">
            <mxPoint x="565" y="640" as="targetPoint" />
            <Array as="points">
              <mxPoint x="620" y="640" />
              <mxPoint x="600" y="620" />
            </Array>
          </mxGeometry>
        </mxCell>
        <mxCell id="fzwZUEE2fW5QMdkN8k67-54" value="Удалить&amp;nbsp;тематику/статью()" style="html=1;verticalAlign=bottom;endArrow=block;edgeStyle=elbowEdgeStyle;elbow=vertical;curved=0;rounded=0;" parent="1" source="fzwZUEE2fW5QMdkN8k67-50" target="fzwZUEE2fW5QMdkN8k67-53" edge="1">
          <mxGeometry x="0.0048" relative="1" as="geometry">
            <mxPoint x="885" y="555" as="sourcePoint" />
            <Array as="points">
              <mxPoint x="780" y="560" />
            </Array>
            <mxPoint as="offset" />
          </mxGeometry>
        </mxCell>
        <mxCell id="fzwZUEE2fW5QMdkN8k67-55" value="Запись удалена()" style="html=1;verticalAlign=bottom;endArrow=open;dashed=1;endSize=8;edgeStyle=elbowEdgeStyle;elbow=vertical;curved=0;rounded=0;" parent="1" source="fzwZUEE2fW5QMdkN8k67-53" target="fzwZUEE2fW5QMdkN8k67-50" edge="1">
          <mxGeometry relative="1" as="geometry">
            <mxPoint x="885" y="630" as="targetPoint" />
            <Array as="points">
              <mxPoint x="800" y="630" />
            </Array>
          </mxGeometry>
        </mxCell>
        <mxCell id="fzwZUEE2fW5QMdkN8k67-69" value="Редактировать тематику/статью()" style="html=1;verticalAlign=bottom;endArrow=block;edgeStyle=elbowEdgeStyle;elbow=vertical;curved=0;rounded=0;" parent="1" source="fzwZUEE2fW5QMdkN8k67-35" target="fzwZUEE2fW5QMdkN8k67-32" edge="1">
          <mxGeometry width="80" relative="1" as="geometry">
            <mxPoint x="410" y="890" as="sourcePoint" />
            <mxPoint x="490" y="890" as="targetPoint" />
            <Array as="points">
              <mxPoint x="460" y="730" />
              <mxPoint x="480" y="870" />
            </Array>
          </mxGeometry>
        </mxCell>
        <mxCell id="fzwZUEE2fW5QMdkN8k67-71" value="Отправить данные()" style="html=1;verticalAlign=bottom;endArrow=block;edgeStyle=elbowEdgeStyle;elbow=vertical;curved=0;rounded=0;" parent="1" source="fzwZUEE2fW5QMdkN8k67-32" target="fzwZUEE2fW5QMdkN8k67-70" edge="1">
          <mxGeometry relative="1" as="geometry">
            <mxPoint x="655" y="890" as="sourcePoint" />
            <Array as="points">
              <mxPoint x="650" y="740" />
              <mxPoint x="600" y="900" />
            </Array>
          </mxGeometry>
        </mxCell>
        <mxCell id="fzwZUEE2fW5QMdkN8k67-72" value="Запись изменена()" style="html=1;verticalAlign=bottom;endArrow=open;dashed=1;endSize=8;edgeStyle=elbowEdgeStyle;elbow=vertical;curved=0;rounded=0;" parent="1" source="fzwZUEE2fW5QMdkN8k67-70" target="fzwZUEE2fW5QMdkN8k67-32" edge="1">
          <mxGeometry relative="1" as="geometry">
            <mxPoint x="655" y="965" as="targetPoint" />
            <Array as="points">
              <mxPoint x="640" y="820" />
              <mxPoint x="700" y="980" />
              <mxPoint x="660" y="970" />
              <mxPoint x="600" y="960" />
            </Array>
          </mxGeometry>
        </mxCell>
        <mxCell id="fzwZUEE2fW5QMdkN8k67-74" value="Редактировать тематику/статью()" style="html=1;verticalAlign=bottom;endArrow=block;edgeStyle=elbowEdgeStyle;elbow=vertical;curved=0;rounded=0;" parent="1" source="fzwZUEE2fW5QMdkN8k67-70" target="fzwZUEE2fW5QMdkN8k67-73" edge="1">
          <mxGeometry relative="1" as="geometry">
            <mxPoint x="885" y="900" as="sourcePoint" />
            <Array as="points">
              <mxPoint x="880" y="750" />
              <mxPoint x="750" y="910" />
            </Array>
          </mxGeometry>
        </mxCell>
        <mxCell id="fzwZUEE2fW5QMdkN8k67-75" value="Запись изменена()" style="html=1;verticalAlign=bottom;endArrow=open;dashed=1;endSize=8;edgeStyle=elbowEdgeStyle;elbow=vertical;curved=0;rounded=0;" parent="1" source="fzwZUEE2fW5QMdkN8k67-73" target="fzwZUEE2fW5QMdkN8k67-70" edge="1">
          <mxGeometry relative="1" as="geometry">
            <mxPoint x="885" y="975" as="targetPoint" />
            <Array as="points">
              <mxPoint x="870" y="810" />
              <mxPoint x="770" y="970" />
            </Array>
          </mxGeometry>
        </mxCell>
        <mxCell id="fzwZUEE2fW5QMdkN8k67-78" value="Изменена тематика/статья()" style="html=1;verticalAlign=bottom;endArrow=open;dashed=1;endSize=8;edgeStyle=elbowEdgeStyle;elbow=vertical;curved=0;rounded=0;" parent="1" source="fzwZUEE2fW5QMdkN8k67-32" target="fzwZUEE2fW5QMdkN8k67-35" edge="1">
          <mxGeometry relative="1" as="geometry">
            <mxPoint x="470" y="1010" as="sourcePoint" />
            <mxPoint x="390" y="1010" as="targetPoint" />
            <Array as="points">
              <mxPoint x="450" y="840" />
              <mxPoint x="500" y="1000" />
            </Array>
          </mxGeometry>
        </mxCell>
      </root>
    </mxGraphModel>
  </diagram>
</mxfile>
